<svg width="60" height="60" viewBox="0 0 60 60" fill="none" xmlns="http://www.w3.org/2000/svg"><path opacity="0.21" d="M0 23C0 10.2975 10.2975 0 23 0H37C49.7025 0 60 10.2975 60 23V37C60 49.7025 49.7025 60 37 60H23C10.2975 60 0 49.7025 0 37V23Z" fill="#318834"></path><path d="M19.7027 18.0643C18.9059 18.2847 18.2871 18.9128 18.0809 19.7143C17.973 20.1222 17.973 39.8659 18.0809 40.2737C18.2965 41.1128 18.9855 41.7737 19.8105 41.9472C19.9887 41.9847 20.659 41.994 21.9105 41.9847C23.6824 41.9706 23.7621 41.9659 24.0059 41.8675C24.1465 41.8112 24.3715 41.6893 24.5121 41.5956L24.7605 41.4315L25.009 41.5956C25.1496 41.6893 25.3746 41.8112 25.5152 41.8675C25.759 41.9659 25.8387 41.9706 27.6105 41.9847C28.8621 41.994 29.5324 41.9847 29.7105 41.9472C30.5355 41.7737 31.2246 41.1128 31.4402 40.2737C31.548 39.8659 31.548 20.1222 31.4402 19.7143C31.2246 18.8753 30.5355 18.2143 29.7105 18.0409C29.5324 18.0034 28.8621 17.994 27.6105 18.0034C25.8387 18.0175 25.759 18.0222 25.5152 18.1206C25.3746 18.1768 25.1496 18.2987 25.009 18.3925L24.7605 18.5565L24.5121 18.3925C24.3715 18.2987 24.1465 18.1768 24.0059 18.1206C23.7621 18.0222 23.6918 18.0175 21.8543 18.0081C20.298 17.9987 19.909 18.0081 19.7027 18.0643ZM29.6637 19.6159C29.734 19.6675 29.8371 19.7706 29.8887 19.8409L29.9871 19.9675L30.0012 28.7331L30.0105 37.494H27.7605H25.5105V28.8034C25.5105 22.7565 25.5246 20.0706 25.5621 19.9768C25.5902 19.9065 25.6559 19.794 25.7121 19.7331C25.9277 19.4987 25.9746 19.494 27.8168 19.5081C29.4715 19.5175 29.5418 19.5222 29.6637 19.6159ZM22.173 22.6206C22.2387 22.6675 22.3371 22.7706 22.3887 22.8409C22.4871 22.9675 22.4871 23.0003 22.4871 27.369C22.4871 31.7378 22.4871 31.7706 22.3887 31.8972C22.2059 32.1456 22.0559 32.2206 21.7605 32.2206C21.4652 32.2206 21.3152 32.1456 21.1324 31.8972C21.034 31.7706 21.034 31.7284 21.0199 27.4956C21.0152 25.1425 21.0199 23.155 21.034 23.0706C21.0668 22.8831 21.2637 22.644 21.4559 22.5597C21.6434 22.4706 22.0184 22.5034 22.173 22.6206ZM24.0105 38.6893C24.0105 40.0347 23.9965 40.1097 23.7012 40.3347L23.5277 40.4706H21.7559C20.0402 40.4706 19.984 40.4659 19.8574 40.3722C19.7871 40.3206 19.684 40.2175 19.6324 40.1472C19.5387 40.0253 19.534 39.9456 19.5199 38.755L19.5059 37.494H21.7605H24.0105V38.6893Z" fill="#318834"></path><path d="M27.4559 22.5596C27.2637 22.644 27.0668 22.8831 27.034 23.0706C27.0199 23.155 27.0153 25.1425 27.0199 27.4956C27.034 31.7284 27.034 31.7706 27.1324 31.8971C27.3153 32.1456 27.4653 32.2206 27.7606 32.2206C28.0559 32.2206 28.2059 32.1456 28.3887 31.8971C28.4871 31.7706 28.4871 31.7378 28.4871 27.369C28.4871 23.0003 28.4871 22.9675 28.3887 22.8409C28.3371 22.7706 28.2387 22.6675 28.1731 22.6206C28.0184 22.5034 27.6434 22.4706 27.4559 22.5596Z" fill="#318834"></path><path d="M36.5496 20.1831C35.8886 20.2769 33.1933 20.7784 33.0433 20.8394C32.1855 21.1769 31.6042 22.0065 31.6042 22.9065C31.6042 23.1972 34.548 40.0487 34.6605 40.4003C34.8949 41.1409 35.5136 41.7269 36.2683 41.9237C36.7417 42.0456 36.8449 42.0315 39.4089 41.5675C40.6464 41.3425 40.8902 41.2487 41.3261 40.8081C41.8136 40.3253 42.0433 39.7347 41.9964 39.1112C41.9683 38.7737 39.0527 22.1612 38.9589 21.819C38.7386 20.9987 37.9839 20.3331 37.1355 20.1972C36.8261 20.1503 36.798 20.1503 36.5496 20.1831ZM37.0511 21.7253C37.1214 21.7394 37.2527 21.8331 37.3417 21.9315C37.4777 22.0815 37.5105 22.1706 37.5808 22.5456C37.7355 23.4222 39.9761 36.1347 39.9761 36.1347C39.9527 36.1487 35.5605 36.9175 35.5558 36.9128C35.5464 36.9081 34.9933 33.7909 34.323 29.9894C33.5027 25.3628 33.1042 23.0097 33.1183 22.8644C33.1371 22.6159 33.2824 22.3862 33.4746 22.2878C33.5449 22.2503 34.2855 22.1003 35.1246 21.955C35.9589 21.8097 36.6761 21.6878 36.7136 21.6784C36.7839 21.6644 36.8121 21.6644 37.0511 21.7253Z" fill="#318834"></path><path d="M35.5887 25.5362C35.4996 25.5831 35.3871 25.6721 35.3402 25.7378C35.1481 25.9956 35.1481 26.0284 35.7106 29.2065C36.0012 30.8659 36.2543 32.2721 36.2684 32.3331C36.2871 32.3987 36.3762 32.5253 36.4746 32.6237C36.8824 33.0315 37.5387 32.844 37.7028 32.2721C37.7356 32.1596 37.6278 31.4518 37.2012 29.0331C36.6106 25.6628 36.6152 25.6862 36.2777 25.5268C36.0621 25.4237 35.7902 25.4284 35.5887 25.5362Z" fill="#318834"></path></svg>